{
  "title": "The Handmaiden 2016 720p HDRip H264 AAC-CINEFOX",
  "uid": 15708548,
  "size": 3581403186,
  "categoryP": "video",
  "categoryS": "movies",
  "magnet": "?xt=urn:btih:e7f571c68f1fd77fb71985a4b0306ba3053c126f&amp;dn=The+Handmaiden+2016+720p+HDRip+H264+AAC-CINEFOX&amp;tr=udp%3A%2F%2Ftracker.leechers-paradise.org%3A6969&amp;tr=udp%3A%2F%2Fzer0day.ch%3A1337&amp;tr=udp%3A%2F%2Fopen.demonii.com%3A1337&amp;tr=udp%3A%2F%2Ftracker.coppersurfer.tk%3A6969&amp;tr=udp%3A%2F%2Fexodus.desync.com%3A6969",
  "seeders": 42,
  "leechers": 10,
  "uploader": "noriegaRJ",
  "files": 1,
  "time": 1472551925,
  "description": "Title: Ah-ga-ssi aka The Handmaiden\r\n\r\nRelease: The Handmaiden 2016 720p HDRip H264 AAC-CINEFOX\r\n\r\n\r\nIMDB Link:                                                              \nhttp://www.imdb.com/title/tt4016934/\r\n\r\n\r\nPlot: 1930s Korea, in the period of Japanese occupation, a new girl (Sookee) is hired as a handmaiden to a Japanese heiress (Hideko) who lives a secluded life on a large countryside estate with her domineering Uncle (Kouzuki). But the maid has a secret. She is a pickpocket recruited by a swindler posing as a Japanese Count to help him seduce the Lady to elope with him, rob her of her fortune, and lock her up in a madhouse. The plan seems to proceed according to plan until Sookee and Hideko discover some unexpected emotions.\r\n\r\n\r\n\r\nGeneral\r\nComplete name                            : The Handmaiden 2016 720p HDRip H264 AAC-CINEFOX.mp4\r\nFormat                                   : MPEG-4\r\nFormat profile                           : Base Media\r\nCodec ID                                 : isom\r\nFile size                                : 3.34 GiB\r\nDuration                                 : 2h 25mn\r\nOverall bit rate mode                    : Variable\r\nOverall bit rate                         : 3 293 Kbps\r\nWriting application                      : Lavf53.13.0\r\n\r\nVideo\r\nID                                       : 1\r\nFormat                                   : AVC\r\nFormat/Info                              : Advanced Video Codec\r\nFormat profile                           :   \r\nFormat settings, CABAC                   : No\r\nFormat settings, ReFrames                : 1 frame\r\nFormat settings, GOP                     : M=1, N=30\r\nCodec ID                                 : avc1\r\nCodec ID/Info                            : Advanced Video Coding\r\nDuration                                 : 2h 25mn\r\nBit rate                                 : 3 000 Kbps\r\nWidth                                    : 1 280 pixels\r\nHeight                                   : 720 pixels\r\nDisplay aspect ratio                     : 16:9\r\nFrame rate mode                          : Constant\r\nFrame rate                               : 29.970 fps\r\nColor space                              : YUV\r\nChroma subsampling                       : 4:2:0\r\nBit depth                                : 8 bits\r\nScan type                                : Progressive\r\nBits/(Pixel*Frame)                       : 0.109\r\nStream size                              : 3.04 GiB (91%)\r\nWriting library                          : x264 core 116 r2074 2641b9e\r\nLanguage                                 : English\r\nTagged date                              : UTC 2016-07-25 09:29:05\r\n\r\nAudio\r\nID                                       : 2\r\nFormat                                   : AAC\r\nFormat/Info                              : Advanced Audio Codec\r\nFormat profile                           : LC\r\nCodec ID                                 : 40\r\nDuration                                 : 2h 25mn\r\nBit rate mode                            : Variable\r\nBit rate                                 : 178 Kbps\r\nMaximum bit rate                         : 192 Kbps\r\nChannel count                            : 2 channels\r\nChannel positions                        : Front: L R\r\nSampling rate                            : 44.1 KHz\r\nCompression mode                         : Lossy\r\nStream size                              : 185 MiB (5%)\r\nLanguage                                 : English\r\nTagged date                              : UTC 2016-07-25 09:29:05\r\n\r\n\r\n\r\nThanks to those helping me seed. Leechers remember, the community depends on you. If nobody shares, the freebies go away. Remember, the only reason you can download this free movie is because others are generous enough to keep sharing it with you. If nobody shares, everybody loses, so even if its for an extra hour or two after you get it, remember, others want to see it too, and they can't without you.\r\n\r\n\r\nSEE MY OTHERS UPLOADS:                                                                                      \nhttp://thepiratebay.se/user/noriegaRJ\r\n\r\nAND SEE THIS ANOTHERS UPLOADS FROM &quot;HORiZON-ArtSubs&quot;:                                      \nhttp://thepiratebay.se/user/artsubs                                      \nhttp://thepiratebay.se/user/lletaif",
  "parsed": {
    "xt": "urn:btih:e7f571c68f1fd77fb71985a4b0306ba3053c126f",
    "dn": "The Handmaiden 2016 720p HDRip H264 AAC-CINEFOX",
    "tr": [
      "udp://exodus.desync.com:6969",
      "udp://open.demonii.com:1337",
      "udp://tracker.coppersurfer.tk:6969",
      "udp://tracker.leechers-paradise.org:6969",
      "udp://zer0day.ch:1337"
    ],
    "infoHash": "e7f571c68f1fd77fb71985a4b0306ba3053c126f",
    "infoHashBuffer": {
      "type": "Buffer",
      "data": [
        231,
        245,
        113,
        198,
        143,
        31,
        215,
        127,
        183,
        25,
        133,
        164,
        176,
        48,
        107,
        163,
        5,
        60,
        18,
        111
      ]
    },
    "name": "The Handmaiden 2016 720p HDRip H264 AAC-CINEFOX",
    "announce": [
      "udp://exodus.desync.com:6969",
      "udp://open.demonii.com:1337",
      "udp://tracker.coppersurfer.tk:6969",
      "udp://tracker.leechers-paradise.org:6969",
      "udp://zer0day.ch:1337"
    ],
    "urlList": []
  },
  "previous": 52,
  "peers": 275,
  "last_updated": "2016-12-25T16:54:13.521Z"
}